<?xml version="1.0" encoding="UTF-8" standalone="no"?>
<svg width="100px" height="33px" viewBox="0 0 100 33" version="1.1" xmlns="http://www.w3.org/2000/svg" xmlns:xlink="http://www.w3.org/1999/xlink">
    <!-- Generator: Sketch 3.6.1 (26313) - http://www.bohemiancoding.com/sketch -->
    <title>logo</title>
    <desc>Created with Sketch.</desc>
    <defs>
        <path id="path-1" d="M0.0201342282,0.234563758 L99.7815436,0.234563758 L99.7815436,32.885906 L0.0201342282,32.885906"></path>
    </defs>
    <g id="Page-1" stroke="none" stroke-width="1" fill="none" fill-rule="evenodd">
        <g id="logo">
            <g>
                <mask id="mask-2" fill="white">
                    <use xlink:href="#path-1"></use>
                </mask>
                <g id="Clip-2"></g>
                <path d="M8.74597315,32.8036913 L0,6.60302013 L5.95536913,6.60302013 L11.314094,24.1694631 L17.1946309,6.52885906 L21.3624161,6.52885906 L27.2798658,24.1694631 L32.6395973,6.60302013 L38.4822148,6.60302013 L29.6993289,32.8036913 L24.9724832,32.8036913 L19.2785235,15.4234899 L13.4728188,32.8036913 L8.74597315,32.8036913" id="Fill-1" fill="#FFFFFF" mask="url(#mask-2)"></path>
                <path d="M38.8228188,32.6550336 L38.8228188,14.0838926 L44.0694631,14.0838926 L44.0694631,18.1785235 C45.6909396,13.3825503 51.1409396,14.0949664 51.1409396,14.0949664 L51.1409396,19.2305369 C51.1409396,19.2305369 44.0694631,18.7053691 44.0694631,24.4543624 L44.0694631,32.6550336 L38.8228188,32.6550336" id="Fill-4" fill="#FFFFFF" mask="url(#mask-2)"></path>
                <path d="M53.5959732,32.6550336 L53.5959732,21.2181208 L58.842953,16.2130872 L58.842953,32.6550336 L53.5959732,32.6550336" id="Fill-5" fill="#FFFFFF" mask="url(#mask-2)"></path>
                <path d="M63.245302,32.6550336 L63.245302,12.147651 L68.4919463,6.90973154 L68.4919463,20.8573826 L74.8936242,14.0838926 L81.3322148,14.0838926 L73.2557047,22.4577181 L82.597651,32.6550336 L75.8238255,32.6550336 L68.4919463,24.6533557 L68.4919463,32.6550336 L63.245302,32.6550336" id="Fill-6" fill="#FFFFFF" mask="url(#mask-2)"></path>
                <path d="M94.6748322,21.3510067 C94.5654362,19.3305369 93.1318792,17.6775168 90.8177852,17.6775168 C88.4674497,17.6775168 86.8872483,19.183557 86.6302013,21.3510067 L94.6748322,21.3510067 L94.6748322,21.3510067 Z M84.4265101,30.2409396 C82.4788591,28.4775168 81.4875839,26.1265101 81.4875839,23.2241611 C81.4875839,20.5063758 82.3694631,18.2285235 84.1318792,16.3919463 C85.895302,14.5181208 88.2104027,13.6 91.0385906,13.6 C93.7201342,13.6 95.8134228,14.5550336 97.3936242,16.4288591 C98.9728188,18.3020134 99.7815436,20.5795302 99.7815436,23.2979866 L99.7815436,24.657047 L86.6302013,24.657047 C87.1808725,27.1550336 89.5322148,28.4775168 92.7644295,28.4775168 C94.8224832,28.4775168 96.7691275,27.9261745 98.642953,26.8614094 L98.642953,31.0120805 C96.9899329,32.2614094 94.6748322,32.885906 91.6630872,32.885906 C88.7973154,32.885906 86.3731544,32.0043624 84.4265101,30.2409396 L84.4265101,30.2409396 Z" id="Fill-7" fill="#FFFFFF" mask="url(#mask-2)"></path>
                <path d="M64.2644295,0.234563758 L52.5281879,11.9711409 L56.0157718,15.4587248 L71.2395973,0.234563758 L64.2644295,0.234563758" id="Fill-8" fill="#009949" mask="url(#mask-2)"></path>
                <path d="M53.9201342,6.38791946 L46.945302,6.38791946 L56.0157718,15.4587248 L59.5033557,11.9711409 L53.9201342,6.38791946" id="Fill-9" fill="#9EC83C" mask="url(#mask-2)"></path>
            </g>
        </g>
    </g>
</svg>